%TF.GenerationSoftware,KiCad,Pcbnew,(6.0.7-1)-1*%
%TF.CreationDate,2022-09-18T21:52:20-07:00*%
%TF.ProjectId,tusb320-breakout-board,74757362-3332-4302-9d62-7265616b6f75,rev?*%
%TF.SameCoordinates,Original*%
%TF.FileFunction,Legend,Bot*%
%TF.FilePolarity,Positive*%
%FSLAX46Y46*%
G04 Gerber Fmt 4.6, Leading zero omitted, Abs format (unit mm)*
G04 Created by KiCad (PCBNEW (6.0.7-1)-1) date 2022-09-18 21:52:20*
%MOMM*%
%LPD*%
G01*
G04 APERTURE LIST*
%ADD10C,0.120000*%
G04 APERTURE END LIST*
D10*
X122184057Y-89700723D02*
X122222152Y-89815009D01*
X122260247Y-89853104D01*
X122336438Y-89891200D01*
X122450723Y-89891200D01*
X122526914Y-89853104D01*
X122565009Y-89815009D01*
X122603104Y-89738819D01*
X122603104Y-89434057D01*
X121803104Y-89434057D01*
X121803104Y-89700723D01*
X121841200Y-89776914D01*
X121879295Y-89815009D01*
X121955485Y-89853104D01*
X122031676Y-89853104D01*
X122107866Y-89815009D01*
X122145961Y-89776914D01*
X122184057Y-89700723D01*
X122184057Y-89434057D01*
X122603104Y-90234057D02*
X122069771Y-90234057D01*
X122222152Y-90234057D02*
X122145961Y-90272152D01*
X122107866Y-90310247D01*
X122069771Y-90386438D01*
X122069771Y-90462628D01*
X122603104Y-90729295D02*
X122069771Y-90729295D01*
X121803104Y-90729295D02*
X121841200Y-90691200D01*
X121879295Y-90729295D01*
X121841200Y-90767390D01*
X121803104Y-90729295D01*
X121879295Y-90729295D01*
X122603104Y-91453104D02*
X121803104Y-91453104D01*
X122565009Y-91453104D02*
X122603104Y-91376914D01*
X122603104Y-91224533D01*
X122565009Y-91148342D01*
X122526914Y-91110247D01*
X122450723Y-91072152D01*
X122222152Y-91072152D01*
X122145961Y-91110247D01*
X122107866Y-91148342D01*
X122069771Y-91224533D01*
X122069771Y-91376914D01*
X122107866Y-91453104D01*
X122069771Y-92176914D02*
X122717390Y-92176914D01*
X122793580Y-92138819D01*
X122831676Y-92100723D01*
X122869771Y-92024533D01*
X122869771Y-91910247D01*
X122831676Y-91834057D01*
X122565009Y-92176914D02*
X122603104Y-92100723D01*
X122603104Y-91948342D01*
X122565009Y-91872152D01*
X122526914Y-91834057D01*
X122450723Y-91795961D01*
X122222152Y-91795961D01*
X122145961Y-91834057D01*
X122107866Y-91872152D01*
X122069771Y-91948342D01*
X122069771Y-92100723D01*
X122107866Y-92176914D01*
X122565009Y-92862628D02*
X122603104Y-92786438D01*
X122603104Y-92634057D01*
X122565009Y-92557866D01*
X122488819Y-92519771D01*
X122184057Y-92519771D01*
X122107866Y-92557866D01*
X122069771Y-92634057D01*
X122069771Y-92786438D01*
X122107866Y-92862628D01*
X122184057Y-92900723D01*
X122260247Y-92900723D01*
X122336438Y-92519771D01*
X122069771Y-93738819D02*
X122069771Y-94043580D01*
X121803104Y-93853104D02*
X122488819Y-93853104D01*
X122565009Y-93891200D01*
X122603104Y-93967390D01*
X122603104Y-94043580D01*
X122603104Y-94424533D02*
X122565009Y-94348342D01*
X122526914Y-94310247D01*
X122450723Y-94272152D01*
X122222152Y-94272152D01*
X122145961Y-94310247D01*
X122107866Y-94348342D01*
X122069771Y-94424533D01*
X122069771Y-94538819D01*
X122107866Y-94615009D01*
X122145961Y-94653104D01*
X122222152Y-94691200D01*
X122450723Y-94691200D01*
X122526914Y-94653104D01*
X122565009Y-94615009D01*
X122603104Y-94538819D01*
X122603104Y-94424533D01*
X122565009Y-95986438D02*
X122603104Y-95910247D01*
X122603104Y-95757866D01*
X122565009Y-95681676D01*
X122526914Y-95643580D01*
X122450723Y-95605485D01*
X122222152Y-95605485D01*
X122145961Y-95643580D01*
X122107866Y-95681676D01*
X122069771Y-95757866D01*
X122069771Y-95910247D01*
X122107866Y-95986438D01*
X122603104Y-96443580D02*
X122565009Y-96367390D01*
X122526914Y-96329295D01*
X122450723Y-96291200D01*
X122222152Y-96291200D01*
X122145961Y-96329295D01*
X122107866Y-96367390D01*
X122069771Y-96443580D01*
X122069771Y-96557866D01*
X122107866Y-96634057D01*
X122145961Y-96672152D01*
X122222152Y-96710247D01*
X122450723Y-96710247D01*
X122526914Y-96672152D01*
X122565009Y-96634057D01*
X122603104Y-96557866D01*
X122603104Y-96443580D01*
X122069771Y-97053104D02*
X122603104Y-97053104D01*
X122145961Y-97053104D02*
X122107866Y-97091200D01*
X122069771Y-97167390D01*
X122069771Y-97281676D01*
X122107866Y-97357866D01*
X122184057Y-97395961D01*
X122603104Y-97395961D01*
X122069771Y-97776914D02*
X122603104Y-97776914D01*
X122145961Y-97776914D02*
X122107866Y-97815009D01*
X122069771Y-97891200D01*
X122069771Y-98005485D01*
X122107866Y-98081676D01*
X122184057Y-98119771D01*
X122603104Y-98119771D01*
X122565009Y-98805485D02*
X122603104Y-98729295D01*
X122603104Y-98576914D01*
X122565009Y-98500723D01*
X122488819Y-98462628D01*
X122184057Y-98462628D01*
X122107866Y-98500723D01*
X122069771Y-98576914D01*
X122069771Y-98729295D01*
X122107866Y-98805485D01*
X122184057Y-98843580D01*
X122260247Y-98843580D01*
X122336438Y-98462628D01*
X122565009Y-99529295D02*
X122603104Y-99453104D01*
X122603104Y-99300723D01*
X122565009Y-99224533D01*
X122526914Y-99186438D01*
X122450723Y-99148342D01*
X122222152Y-99148342D01*
X122145961Y-99186438D01*
X122107866Y-99224533D01*
X122069771Y-99300723D01*
X122069771Y-99453104D01*
X122107866Y-99529295D01*
X122069771Y-99757866D02*
X122069771Y-100062628D01*
X121803104Y-99872152D02*
X122488819Y-99872152D01*
X122565009Y-99910247D01*
X122603104Y-99986438D01*
X122603104Y-100062628D01*
X123091104Y-88615009D02*
X123891104Y-88881676D01*
X123091104Y-89148342D01*
X123472057Y-89681676D02*
X123510152Y-89795961D01*
X123548247Y-89834057D01*
X123624438Y-89872152D01*
X123738723Y-89872152D01*
X123814914Y-89834057D01*
X123853009Y-89795961D01*
X123891104Y-89719771D01*
X123891104Y-89415009D01*
X123091104Y-89415009D01*
X123091104Y-89681676D01*
X123129200Y-89757866D01*
X123167295Y-89795961D01*
X123243485Y-89834057D01*
X123319676Y-89834057D01*
X123395866Y-89795961D01*
X123433961Y-89757866D01*
X123472057Y-89681676D01*
X123472057Y-89415009D01*
X123091104Y-90215009D02*
X123738723Y-90215009D01*
X123814914Y-90253104D01*
X123853009Y-90291200D01*
X123891104Y-90367390D01*
X123891104Y-90519771D01*
X123853009Y-90595961D01*
X123814914Y-90634057D01*
X123738723Y-90672152D01*
X123091104Y-90672152D01*
X123853009Y-91015009D02*
X123891104Y-91129295D01*
X123891104Y-91319771D01*
X123853009Y-91395961D01*
X123814914Y-91434057D01*
X123738723Y-91472152D01*
X123662533Y-91472152D01*
X123586342Y-91434057D01*
X123548247Y-91395961D01*
X123510152Y-91319771D01*
X123472057Y-91167390D01*
X123433961Y-91091200D01*
X123395866Y-91053104D01*
X123319676Y-91015009D01*
X123243485Y-91015009D01*
X123167295Y-91053104D01*
X123129200Y-91091200D01*
X123091104Y-91167390D01*
X123091104Y-91357866D01*
X123129200Y-91472152D01*
X123891104Y-92767390D02*
X123472057Y-92767390D01*
X123395866Y-92729295D01*
X123357771Y-92653104D01*
X123357771Y-92500723D01*
X123395866Y-92424533D01*
X123853009Y-92767390D02*
X123891104Y-92691200D01*
X123891104Y-92500723D01*
X123853009Y-92424533D01*
X123776819Y-92386438D01*
X123700628Y-92386438D01*
X123624438Y-92424533D01*
X123586342Y-92500723D01*
X123586342Y-92691200D01*
X123548247Y-92767390D01*
X123357771Y-93148342D02*
X123891104Y-93148342D01*
X123433961Y-93148342D02*
X123395866Y-93186438D01*
X123357771Y-93262628D01*
X123357771Y-93376914D01*
X123395866Y-93453104D01*
X123472057Y-93491200D01*
X123891104Y-93491200D01*
X123891104Y-94215009D02*
X123091104Y-94215009D01*
X123853009Y-94215009D02*
X123891104Y-94138819D01*
X123891104Y-93986438D01*
X123853009Y-93910247D01*
X123814914Y-93872152D01*
X123738723Y-93834057D01*
X123510152Y-93834057D01*
X123433961Y-93872152D01*
X123395866Y-93910247D01*
X123357771Y-93986438D01*
X123357771Y-94138819D01*
X123395866Y-94215009D01*
X123091104Y-95091200D02*
X123891104Y-95357866D01*
X123091104Y-95624533D01*
X123472057Y-96157866D02*
X123510152Y-96272152D01*
X123548247Y-96310247D01*
X123624438Y-96348342D01*
X123738723Y-96348342D01*
X123814914Y-96310247D01*
X123853009Y-96272152D01*
X123891104Y-96195961D01*
X123891104Y-95891200D01*
X123091104Y-95891200D01*
X123091104Y-96157866D01*
X123129200Y-96234057D01*
X123167295Y-96272152D01*
X123243485Y-96310247D01*
X123319676Y-96310247D01*
X123395866Y-96272152D01*
X123433961Y-96234057D01*
X123472057Y-96157866D01*
X123472057Y-95891200D01*
X123091104Y-96691200D02*
X123738723Y-96691200D01*
X123814914Y-96729295D01*
X123853009Y-96767390D01*
X123891104Y-96843580D01*
X123891104Y-96995961D01*
X123853009Y-97072152D01*
X123814914Y-97110247D01*
X123738723Y-97148342D01*
X123091104Y-97148342D01*
X123853009Y-97491200D02*
X123891104Y-97605485D01*
X123891104Y-97795961D01*
X123853009Y-97872152D01*
X123814914Y-97910247D01*
X123738723Y-97948342D01*
X123662533Y-97948342D01*
X123586342Y-97910247D01*
X123548247Y-97872152D01*
X123510152Y-97795961D01*
X123472057Y-97643580D01*
X123433961Y-97567390D01*
X123395866Y-97529295D01*
X123319676Y-97491200D01*
X123243485Y-97491200D01*
X123167295Y-97529295D01*
X123129200Y-97567390D01*
X123091104Y-97643580D01*
X123091104Y-97834057D01*
X123129200Y-97948342D01*
X123967295Y-98100723D02*
X123967295Y-98710247D01*
X123891104Y-98900723D02*
X123091104Y-98900723D01*
X123091104Y-99091200D01*
X123129200Y-99205485D01*
X123205390Y-99281676D01*
X123281580Y-99319771D01*
X123433961Y-99357866D01*
X123548247Y-99357866D01*
X123700628Y-99319771D01*
X123776819Y-99281676D01*
X123853009Y-99205485D01*
X123891104Y-99091200D01*
X123891104Y-98900723D01*
X123472057Y-99700723D02*
X123472057Y-99967390D01*
X123891104Y-100081676D02*
X123891104Y-99700723D01*
X123091104Y-99700723D01*
X123091104Y-100081676D01*
X123091104Y-100310247D02*
X123091104Y-100767390D01*
X123891104Y-100538819D02*
X123091104Y-100538819D01*
%TO.C,R2*%
X121474704Y-94456266D02*
X121093752Y-94189600D01*
X121474704Y-93999123D02*
X120674704Y-93999123D01*
X120674704Y-94303885D01*
X120712800Y-94380076D01*
X120750895Y-94418171D01*
X120827085Y-94456266D01*
X120941371Y-94456266D01*
X121017561Y-94418171D01*
X121055657Y-94380076D01*
X121093752Y-94303885D01*
X121093752Y-93999123D01*
X120750895Y-94761028D02*
X120712800Y-94799123D01*
X120674704Y-94875314D01*
X120674704Y-95065790D01*
X120712800Y-95141980D01*
X120750895Y-95180076D01*
X120827085Y-95218171D01*
X120903276Y-95218171D01*
X121017561Y-95180076D01*
X121474704Y-94722933D01*
X121474704Y-95218171D01*
X121436400Y-92605159D02*
X121436400Y-92912441D01*
X120676400Y-92605159D02*
X120676400Y-92912441D01*
%TO.C,J2*%
X120050000Y-103608000D02*
X117390000Y-103608000D01*
X120050000Y-80628000D02*
X118720000Y-80628000D01*
X120050000Y-83228000D02*
X120050000Y-103608000D01*
X117390000Y-83228000D02*
X117390000Y-103608000D01*
X120050000Y-81958000D02*
X120050000Y-80628000D01*
X120050000Y-83228000D02*
X117390000Y-83228000D01*
%TO.C,J3*%
X125010000Y-83228000D02*
X125010000Y-103608000D01*
X127670000Y-83228000D02*
X127670000Y-103608000D01*
X127670000Y-83228000D02*
X125010000Y-83228000D01*
X127670000Y-80628000D02*
X126340000Y-80628000D01*
X127670000Y-81958000D02*
X127670000Y-80628000D01*
X127670000Y-103608000D02*
X125010000Y-103608000D01*
%TD*%
M02*
