%TF.GenerationSoftware,KiCad,Pcbnew,(6.0.7-1)-1*%
%TF.CreationDate,2022-09-18T20:00:13-07:00*%
%TF.ProjectId,tusb320-breakout-board,74757362-3332-4302-9d62-7265616b6f75,rev?*%
%TF.SameCoordinates,Original*%
%TF.FileFunction,Copper,L2,Bot*%
%TF.FilePolarity,Positive*%
%FSLAX46Y46*%
G04 Gerber Fmt 4.6, Leading zero omitted, Abs format (unit mm)*
G04 Created by KiCad (PCBNEW (6.0.7-1)-1) date 2022-09-18 20:00:13*
%MOMM*%
%LPD*%
G01*
G04 APERTURE LIST*
%TA.AperFunction,ComponentPad*%
%ADD10O,1.300000X2.600000*%
%TD*%
%TA.AperFunction,ComponentPad*%
%ADD11O,1.300000X2.300000*%
%TD*%
%TA.AperFunction,ComponentPad*%
%ADD12R,1.700000X1.700000*%
%TD*%
%TA.AperFunction,ComponentPad*%
%ADD13O,1.700000X1.700000*%
%TD*%
%TA.AperFunction,ViaPad*%
%ADD14C,0.800000*%
%TD*%
%TA.AperFunction,Conductor*%
%ADD15C,0.250000*%
%TD*%
G04 APERTURE END LIST*
D10*
%TO.P,J1,S1,SHIELD*%
%TO.N,unconnected-(J1-PadS1)*%
X126860000Y-74630000D03*
X118220000Y-74630000D03*
D11*
X118220000Y-78455000D03*
X126860000Y-78455000D03*
%TD*%
D12*
%TO.P,J2,1,Pin_1*%
%TO.N,GND*%
X118720000Y-81958000D03*
D13*
%TO.P,J2,2,Pin_2*%
%TO.N,Net-(J1-PadA4)*%
X118720000Y-84498000D03*
%TO.P,J2,3,Pin_3*%
%TO.N,Net-(J1-PadA5)*%
X118720000Y-87038000D03*
%TO.P,J2,4,Pin_4*%
%TO.N,Net-(J1-PadB5)*%
X118720000Y-89578000D03*
%TO.P,J2,5,Pin_5*%
%TO.N,Net-(J2-Pad5)*%
X118720000Y-92118000D03*
%TO.P,J2,6,Pin_6*%
%TO.N,Net-(R1-Pad2)*%
X118720000Y-94658000D03*
%TO.P,J2,7,Pin_7*%
%TO.N,Net-(J2-Pad7)*%
X118720000Y-97198000D03*
%TO.P,J2,8,Pin_8*%
%TO.N,Net-(J2-Pad8)*%
X118720000Y-99738000D03*
%TO.P,J2,9,Pin_9*%
%TO.N,Net-(J2-Pad9)*%
X118720000Y-102278000D03*
%TD*%
D12*
%TO.P,J3,1,Pin_1*%
%TO.N,Net-(J3-Pad1)*%
X126340000Y-81958000D03*
D13*
%TO.P,J3,2,Pin_2*%
%TO.N,Net-(J3-Pad2)*%
X126340000Y-84498000D03*
%TO.P,J3,3,Pin_3*%
%TO.N,Net-(J3-Pad3)*%
X126340000Y-87038000D03*
%TO.P,J3,4,Pin_4*%
%TO.N,Net-(J3-Pad4)*%
X126340000Y-89578000D03*
%TO.P,J3,5,Pin_5*%
%TO.N,Net-(C2-Pad2)*%
X126340000Y-92118000D03*
%TO.P,J3,6,Pin_6*%
%TO.N,Net-(J3-Pad6)*%
X126340000Y-94658000D03*
%TO.P,J3,7,Pin_7*%
%TO.N,Net-(J3-Pad7)*%
X126340000Y-97198000D03*
%TO.P,J3,8,Pin_8*%
%TO.N,Net-(J3-Pad8)*%
X126340000Y-99738000D03*
%TO.P,J3,9,Pin_9*%
%TO.N,Net-(J3-Pad9)*%
X126340000Y-102278000D03*
%TD*%
D14*
%TO.N,GND*%
X122301000Y-87579200D03*
X125640000Y-80111600D03*
X121208800Y-85090000D03*
X123960000Y-90068400D03*
X124980000Y-95928000D03*
%TO.N,Net-(J1-PadA5)*%
X120930000Y-90600000D03*
X120930000Y-87038000D03*
X124560000Y-81190000D03*
%TO.N,Net-(J3-Pad2)*%
X124020000Y-82710000D03*
X120910000Y-81190000D03*
%TD*%
D15*
%TO.N,Net-(J1-PadA5)*%
X124745000Y-81375000D02*
X124745000Y-83223000D01*
X124560000Y-81190000D02*
X124745000Y-81375000D01*
X124745000Y-83223000D02*
X120930000Y-87038000D01*
X120930000Y-87038000D02*
X120930000Y-90600000D01*
%TO.N,Net-(J3-Pad2)*%
X122500000Y-81190000D02*
X124020000Y-82710000D01*
X120910000Y-81190000D02*
X122500000Y-81190000D01*
%TD*%
%TA.AperFunction,Conductor*%
%TO.N,GND*%
G36*
X124941402Y-84026670D02*
G01*
X124998237Y-84069217D01*
X125023048Y-84135737D01*
X125018786Y-84178396D01*
X125000989Y-84242570D01*
X124977251Y-84464695D01*
X124977548Y-84469848D01*
X124977548Y-84469851D01*
X124983011Y-84564590D01*
X124990110Y-84687715D01*
X124991247Y-84692761D01*
X124991248Y-84692767D01*
X125011119Y-84780939D01*
X125039222Y-84905639D01*
X125123266Y-85112616D01*
X125125965Y-85117020D01*
X125237288Y-85298683D01*
X125239987Y-85303088D01*
X125386250Y-85471938D01*
X125558126Y-85614632D01*
X125628595Y-85655811D01*
X125631445Y-85657476D01*
X125680169Y-85709114D01*
X125693240Y-85778897D01*
X125666509Y-85844669D01*
X125626055Y-85878027D01*
X125613607Y-85884507D01*
X125609474Y-85887610D01*
X125609471Y-85887612D01*
X125585247Y-85905800D01*
X125434965Y-86018635D01*
X125280629Y-86180138D01*
X125277715Y-86184410D01*
X125277714Y-86184411D01*
X125200071Y-86298231D01*
X125154743Y-86364680D01*
X125139003Y-86398590D01*
X125066925Y-86553869D01*
X125060688Y-86567305D01*
X125000989Y-86782570D01*
X124977251Y-87004695D01*
X124990110Y-87227715D01*
X124991247Y-87232761D01*
X124991248Y-87232767D01*
X125012275Y-87326069D01*
X125039222Y-87445639D01*
X125123266Y-87652616D01*
X125147497Y-87692158D01*
X125237288Y-87838683D01*
X125239987Y-87843088D01*
X125386250Y-88011938D01*
X125558126Y-88154632D01*
X125628595Y-88195811D01*
X125631445Y-88197476D01*
X125680169Y-88249114D01*
X125693240Y-88318897D01*
X125666509Y-88384669D01*
X125626055Y-88418027D01*
X125613607Y-88424507D01*
X125609474Y-88427610D01*
X125609471Y-88427612D01*
X125585247Y-88445800D01*
X125434965Y-88558635D01*
X125280629Y-88720138D01*
X125277715Y-88724410D01*
X125277714Y-88724411D01*
X125200071Y-88838231D01*
X125154743Y-88904680D01*
X125060688Y-89107305D01*
X125000989Y-89322570D01*
X124977251Y-89544695D01*
X124990110Y-89767715D01*
X124991247Y-89772761D01*
X124991248Y-89772767D01*
X125012275Y-89866069D01*
X125039222Y-89985639D01*
X125123266Y-90192616D01*
X125125965Y-90197020D01*
X125237288Y-90378683D01*
X125239987Y-90383088D01*
X125386250Y-90551938D01*
X125558126Y-90694632D01*
X125628595Y-90735811D01*
X125631445Y-90737476D01*
X125680169Y-90789114D01*
X125693240Y-90858897D01*
X125666509Y-90924669D01*
X125626055Y-90958027D01*
X125613607Y-90964507D01*
X125609474Y-90967610D01*
X125609471Y-90967612D01*
X125585247Y-90985800D01*
X125434965Y-91098635D01*
X125280629Y-91260138D01*
X125277715Y-91264410D01*
X125277714Y-91264411D01*
X125200071Y-91378231D01*
X125154743Y-91444680D01*
X125060688Y-91647305D01*
X125000989Y-91862570D01*
X124977251Y-92084695D01*
X124977548Y-92089848D01*
X124977548Y-92089851D01*
X124983011Y-92184590D01*
X124990110Y-92307715D01*
X124991247Y-92312761D01*
X124991248Y-92312767D01*
X125011119Y-92400939D01*
X125039222Y-92525639D01*
X125123266Y-92732616D01*
X125125965Y-92737020D01*
X125237288Y-92918683D01*
X125239987Y-92923088D01*
X125386250Y-93091938D01*
X125558126Y-93234632D01*
X125628595Y-93275811D01*
X125631445Y-93277476D01*
X125680169Y-93329114D01*
X125693240Y-93398897D01*
X125666509Y-93464669D01*
X125626055Y-93498027D01*
X125613607Y-93504507D01*
X125609474Y-93507610D01*
X125609471Y-93507612D01*
X125585247Y-93525800D01*
X125434965Y-93638635D01*
X125280629Y-93800138D01*
X125277715Y-93804410D01*
X125277714Y-93804411D01*
X125200071Y-93918231D01*
X125154743Y-93984680D01*
X125060688Y-94187305D01*
X125000989Y-94402570D01*
X124977251Y-94624695D01*
X124977548Y-94629848D01*
X124977548Y-94629851D01*
X124983011Y-94724590D01*
X124990110Y-94847715D01*
X124991247Y-94852761D01*
X124991248Y-94852767D01*
X125011119Y-94940939D01*
X125039222Y-95065639D01*
X125123266Y-95272616D01*
X125125965Y-95277020D01*
X125237288Y-95458683D01*
X125239987Y-95463088D01*
X125386250Y-95631938D01*
X125558126Y-95774632D01*
X125628595Y-95815811D01*
X125631445Y-95817476D01*
X125680169Y-95869114D01*
X125693240Y-95938897D01*
X125666509Y-96004669D01*
X125626055Y-96038027D01*
X125613607Y-96044507D01*
X125609474Y-96047610D01*
X125609471Y-96047612D01*
X125585247Y-96065800D01*
X125434965Y-96178635D01*
X125280629Y-96340138D01*
X125277715Y-96344410D01*
X125277714Y-96344411D01*
X125200071Y-96458231D01*
X125154743Y-96524680D01*
X125060688Y-96727305D01*
X125000989Y-96942570D01*
X124977251Y-97164695D01*
X124977548Y-97169848D01*
X124977548Y-97169851D01*
X124983011Y-97264590D01*
X124990110Y-97387715D01*
X124991247Y-97392761D01*
X124991248Y-97392767D01*
X125011119Y-97480939D01*
X125039222Y-97605639D01*
X125123266Y-97812616D01*
X125125965Y-97817020D01*
X125237288Y-97998683D01*
X125239987Y-98003088D01*
X125386250Y-98171938D01*
X125558126Y-98314632D01*
X125628595Y-98355811D01*
X125631445Y-98357476D01*
X125680169Y-98409114D01*
X125693240Y-98478897D01*
X125666509Y-98544669D01*
X125626055Y-98578027D01*
X125613607Y-98584507D01*
X125609474Y-98587610D01*
X125609471Y-98587612D01*
X125585247Y-98605800D01*
X125434965Y-98718635D01*
X125280629Y-98880138D01*
X125277715Y-98884410D01*
X125277714Y-98884411D01*
X125200071Y-98998231D01*
X125154743Y-99064680D01*
X125060688Y-99267305D01*
X125000989Y-99482570D01*
X124977251Y-99704695D01*
X124977548Y-99709848D01*
X124977548Y-99709851D01*
X124983011Y-99804590D01*
X124990110Y-99927715D01*
X124991247Y-99932761D01*
X124991248Y-99932767D01*
X125011119Y-100020939D01*
X125039222Y-100145639D01*
X125123266Y-100352616D01*
X125125965Y-100357020D01*
X125237288Y-100538683D01*
X125239987Y-100543088D01*
X125386250Y-100711938D01*
X125558126Y-100854632D01*
X125628595Y-100895811D01*
X125631445Y-100897476D01*
X125680169Y-100949114D01*
X125693240Y-101018897D01*
X125666509Y-101084669D01*
X125626055Y-101118027D01*
X125613607Y-101124507D01*
X125609474Y-101127610D01*
X125609471Y-101127612D01*
X125585247Y-101145800D01*
X125434965Y-101258635D01*
X125280629Y-101420138D01*
X125277715Y-101424410D01*
X125277714Y-101424411D01*
X125200071Y-101538231D01*
X125154743Y-101604680D01*
X125060688Y-101807305D01*
X125000989Y-102022570D01*
X124977251Y-102244695D01*
X124977548Y-102249848D01*
X124977548Y-102249851D01*
X124983011Y-102344590D01*
X124990110Y-102467715D01*
X124991247Y-102472761D01*
X124991248Y-102472767D01*
X125011119Y-102560939D01*
X125039222Y-102685639D01*
X125123266Y-102892616D01*
X125125965Y-102897020D01*
X125237288Y-103078683D01*
X125239987Y-103083088D01*
X125386250Y-103251938D01*
X125558126Y-103394632D01*
X125562593Y-103397242D01*
X125566827Y-103400207D01*
X125566041Y-103401329D01*
X125610406Y-103448344D01*
X125623482Y-103518126D01*
X125596754Y-103583899D01*
X125538710Y-103624782D01*
X125498116Y-103631500D01*
X119555617Y-103631500D01*
X119487496Y-103611498D01*
X119441003Y-103557842D01*
X119430899Y-103487568D01*
X119460393Y-103422988D01*
X119482449Y-103402921D01*
X119498703Y-103391327D01*
X119599860Y-103319173D01*
X119758096Y-103161489D01*
X119817594Y-103078689D01*
X119885435Y-102984277D01*
X119888453Y-102980077D01*
X119895827Y-102965158D01*
X119985136Y-102784453D01*
X119985137Y-102784451D01*
X119987430Y-102779811D01*
X120052370Y-102566069D01*
X120081529Y-102344590D01*
X120083156Y-102278000D01*
X120064852Y-102055361D01*
X120010431Y-101838702D01*
X119921354Y-101633840D01*
X119877035Y-101565334D01*
X119802822Y-101450617D01*
X119802820Y-101450614D01*
X119800014Y-101446277D01*
X119649670Y-101281051D01*
X119645619Y-101277852D01*
X119645615Y-101277848D01*
X119478414Y-101145800D01*
X119478410Y-101145798D01*
X119474359Y-101142598D01*
X119433053Y-101119796D01*
X119383084Y-101069364D01*
X119368312Y-100999921D01*
X119393428Y-100933516D01*
X119420780Y-100906909D01*
X119464603Y-100875650D01*
X119599860Y-100779173D01*
X119758096Y-100621489D01*
X119817594Y-100538689D01*
X119885435Y-100444277D01*
X119888453Y-100440077D01*
X119895827Y-100425158D01*
X119985136Y-100244453D01*
X119985137Y-100244451D01*
X119987430Y-100239811D01*
X120052370Y-100026069D01*
X120081529Y-99804590D01*
X120083156Y-99738000D01*
X120064852Y-99515361D01*
X120010431Y-99298702D01*
X119921354Y-99093840D01*
X119877035Y-99025334D01*
X119802822Y-98910617D01*
X119802820Y-98910614D01*
X119800014Y-98906277D01*
X119649670Y-98741051D01*
X119645619Y-98737852D01*
X119645615Y-98737848D01*
X119478414Y-98605800D01*
X119478410Y-98605798D01*
X119474359Y-98602598D01*
X119433053Y-98579796D01*
X119383084Y-98529364D01*
X119368312Y-98459921D01*
X119393428Y-98393516D01*
X119420780Y-98366909D01*
X119464603Y-98335650D01*
X119599860Y-98239173D01*
X119758096Y-98081489D01*
X119817594Y-97998689D01*
X119885435Y-97904277D01*
X119888453Y-97900077D01*
X119895827Y-97885158D01*
X119985136Y-97704453D01*
X119985137Y-97704451D01*
X119987430Y-97699811D01*
X120052370Y-97486069D01*
X120081529Y-97264590D01*
X120083156Y-97198000D01*
X120064852Y-96975361D01*
X120010431Y-96758702D01*
X119921354Y-96553840D01*
X119877035Y-96485334D01*
X119802822Y-96370617D01*
X119802820Y-96370614D01*
X119800014Y-96366277D01*
X119649670Y-96201051D01*
X119645619Y-96197852D01*
X119645615Y-96197848D01*
X119478414Y-96065800D01*
X119478410Y-96065798D01*
X119474359Y-96062598D01*
X119433053Y-96039796D01*
X119383084Y-95989364D01*
X119368312Y-95919921D01*
X119393428Y-95853516D01*
X119420780Y-95826909D01*
X119464603Y-95795650D01*
X119599860Y-95699173D01*
X119758096Y-95541489D01*
X119817594Y-95458689D01*
X119885435Y-95364277D01*
X119888453Y-95360077D01*
X119895827Y-95345158D01*
X119985136Y-95164453D01*
X119985137Y-95164451D01*
X119987430Y-95159811D01*
X120052370Y-94946069D01*
X120081529Y-94724590D01*
X120083156Y-94658000D01*
X120064852Y-94435361D01*
X120010431Y-94218702D01*
X119921354Y-94013840D01*
X119877035Y-93945334D01*
X119802822Y-93830617D01*
X119802820Y-93830614D01*
X119800014Y-93826277D01*
X119649670Y-93661051D01*
X119645619Y-93657852D01*
X119645615Y-93657848D01*
X119478414Y-93525800D01*
X119478410Y-93525798D01*
X119474359Y-93522598D01*
X119433053Y-93499796D01*
X119383084Y-93449364D01*
X119368312Y-93379921D01*
X119393428Y-93313516D01*
X119420780Y-93286909D01*
X119464603Y-93255650D01*
X119599860Y-93159173D01*
X119758096Y-93001489D01*
X119817594Y-92918689D01*
X119885435Y-92824277D01*
X119888453Y-92820077D01*
X119895827Y-92805158D01*
X119985136Y-92624453D01*
X119985137Y-92624451D01*
X119987430Y-92619811D01*
X120052370Y-92406069D01*
X120081529Y-92184590D01*
X120083156Y-92118000D01*
X120064852Y-91895361D01*
X120010431Y-91678702D01*
X119921354Y-91473840D01*
X119877035Y-91405334D01*
X119802822Y-91290617D01*
X119802820Y-91290614D01*
X119800014Y-91286277D01*
X119649670Y-91121051D01*
X119645619Y-91117852D01*
X119645615Y-91117848D01*
X119478414Y-90985800D01*
X119478410Y-90985798D01*
X119474359Y-90982598D01*
X119433053Y-90959796D01*
X119383084Y-90909364D01*
X119368312Y-90839921D01*
X119393428Y-90773516D01*
X119420780Y-90746909D01*
X119464603Y-90715650D01*
X119599860Y-90619173D01*
X119758096Y-90461489D01*
X119800513Y-90402459D01*
X119856508Y-90358811D01*
X119927211Y-90352365D01*
X119990175Y-90385167D01*
X120025410Y-90446804D01*
X120028146Y-90489155D01*
X120016496Y-90600000D01*
X120017186Y-90606565D01*
X120031937Y-90746909D01*
X120036458Y-90789928D01*
X120095473Y-90971556D01*
X120190960Y-91136944D01*
X120318747Y-91278866D01*
X120334921Y-91290617D01*
X120455950Y-91378550D01*
X120473248Y-91391118D01*
X120479276Y-91393802D01*
X120479278Y-91393803D01*
X120604096Y-91449375D01*
X120647712Y-91468794D01*
X120741113Y-91488647D01*
X120828056Y-91507128D01*
X120828061Y-91507128D01*
X120834513Y-91508500D01*
X121025487Y-91508500D01*
X121031939Y-91507128D01*
X121031944Y-91507128D01*
X121118888Y-91488647D01*
X121212288Y-91468794D01*
X121255904Y-91449375D01*
X121380722Y-91393803D01*
X121380724Y-91393802D01*
X121386752Y-91391118D01*
X121404051Y-91378550D01*
X121525079Y-91290617D01*
X121541253Y-91278866D01*
X121669040Y-91136944D01*
X121764527Y-90971556D01*
X121823542Y-90789928D01*
X121828064Y-90746909D01*
X121842814Y-90606565D01*
X121843504Y-90600000D01*
X121831854Y-90489155D01*
X121824232Y-90416635D01*
X121824232Y-90416633D01*
X121823542Y-90410072D01*
X121764527Y-90228444D01*
X121669040Y-90063056D01*
X121595863Y-89981785D01*
X121565147Y-89917779D01*
X121563500Y-89897476D01*
X121563500Y-87740524D01*
X121583502Y-87672403D01*
X121595858Y-87656221D01*
X121669040Y-87574944D01*
X121740931Y-87450425D01*
X121761223Y-87415279D01*
X121761224Y-87415278D01*
X121764527Y-87409556D01*
X121823542Y-87227928D01*
X121840907Y-87062706D01*
X121867920Y-86997050D01*
X121877122Y-86986782D01*
X124808274Y-84055631D01*
X124870586Y-84021605D01*
X124941402Y-84026670D01*
G37*
%TD.AperFunction*%
%TA.AperFunction,Conductor*%
G36*
X127653621Y-72128502D02*
G01*
X127700114Y-72182158D01*
X127711500Y-72234500D01*
X127711500Y-72918849D01*
X127691498Y-72986970D01*
X127637842Y-73033463D01*
X127567568Y-73043567D01*
X127518264Y-73025411D01*
X127393081Y-72946426D01*
X127388201Y-72943347D01*
X127190441Y-72864449D01*
X127184781Y-72863323D01*
X127184777Y-72863322D01*
X126987282Y-72824038D01*
X126987280Y-72824038D01*
X126981615Y-72822911D01*
X126975840Y-72822835D01*
X126975836Y-72822835D01*
X126869161Y-72821439D01*
X126768716Y-72820124D01*
X126763019Y-72821103D01*
X126763018Y-72821103D01*
X126564564Y-72855203D01*
X126564561Y-72855204D01*
X126558874Y-72856181D01*
X126359116Y-72929875D01*
X126176134Y-73038739D01*
X126016054Y-73179125D01*
X125884238Y-73346333D01*
X125881549Y-73351444D01*
X125881547Y-73351447D01*
X125827085Y-73454961D01*
X125785100Y-73534762D01*
X125783386Y-73540283D01*
X125783384Y-73540287D01*
X125730494Y-73710623D01*
X125721961Y-73738102D01*
X125701500Y-73910982D01*
X125701500Y-75334013D01*
X125716019Y-75492024D01*
X125773814Y-75696948D01*
X125867985Y-75887908D01*
X125995378Y-76058509D01*
X126151729Y-76203037D01*
X126331799Y-76316653D01*
X126529559Y-76395551D01*
X126535219Y-76396677D01*
X126535223Y-76396678D01*
X126732718Y-76435962D01*
X126732720Y-76435962D01*
X126738385Y-76437089D01*
X126744160Y-76437165D01*
X126744164Y-76437165D01*
X126850839Y-76438561D01*
X126951284Y-76439876D01*
X126956982Y-76438897D01*
X127155436Y-76404797D01*
X127155439Y-76404796D01*
X127161126Y-76403819D01*
X127360884Y-76330125D01*
X127521078Y-76234818D01*
X127589847Y-76217179D01*
X127657237Y-76239519D01*
X127701851Y-76294747D01*
X127711500Y-76343104D01*
X127711500Y-76893849D01*
X127691498Y-76961970D01*
X127637842Y-77008463D01*
X127567568Y-77018567D01*
X127518264Y-77000411D01*
X127517599Y-76999991D01*
X127388201Y-76918347D01*
X127190441Y-76839449D01*
X127184781Y-76838323D01*
X127184777Y-76838322D01*
X126987282Y-76799038D01*
X126987280Y-76799038D01*
X126981615Y-76797911D01*
X126975840Y-76797835D01*
X126975836Y-76797835D01*
X126869161Y-76796439D01*
X126768716Y-76795124D01*
X126763019Y-76796103D01*
X126763018Y-76796103D01*
X126564564Y-76830203D01*
X126564561Y-76830204D01*
X126558874Y-76831181D01*
X126359116Y-76904875D01*
X126263149Y-76961970D01*
X126201204Y-76998824D01*
X126176134Y-77013739D01*
X126153405Y-77033672D01*
X126139582Y-77045794D01*
X126075178Y-77075671D01*
X126004845Y-77065985D01*
X125988254Y-77056975D01*
X125901762Y-77001235D01*
X125895142Y-76998826D01*
X125895139Y-76998824D01*
X125737934Y-76941606D01*
X125737933Y-76941606D01*
X125731315Y-76939197D01*
X125591231Y-76921500D01*
X125494390Y-76921500D01*
X125359745Y-76936603D01*
X125353092Y-76938920D01*
X125353091Y-76938920D01*
X125195106Y-76993936D01*
X125195103Y-76993938D01*
X125188448Y-76996255D01*
X125182471Y-76999990D01*
X125182469Y-76999991D01*
X125174367Y-77005054D01*
X125034624Y-77092374D01*
X125029628Y-77097335D01*
X125029627Y-77097336D01*
X124910915Y-77215222D01*
X124910912Y-77215226D01*
X124905918Y-77220185D01*
X124808727Y-77373334D01*
X124806362Y-77379976D01*
X124750243Y-77537575D01*
X124750242Y-77537580D01*
X124747881Y-77544210D01*
X124726404Y-77724320D01*
X124745364Y-77904712D01*
X124803818Y-78076421D01*
X124898862Y-78230912D01*
X124903793Y-78235947D01*
X124903795Y-78235950D01*
X125020843Y-78355475D01*
X125025771Y-78360507D01*
X125178238Y-78458765D01*
X125184858Y-78461174D01*
X125184861Y-78461176D01*
X125342066Y-78518394D01*
X125348685Y-78520803D01*
X125488769Y-78538500D01*
X125575500Y-78538500D01*
X125643621Y-78558502D01*
X125690114Y-78612158D01*
X125701500Y-78664500D01*
X125701500Y-79009013D01*
X125716019Y-79167024D01*
X125773814Y-79371948D01*
X125867985Y-79562908D01*
X125995378Y-79733509D01*
X126151729Y-79878037D01*
X126331799Y-79991653D01*
X126529559Y-80070551D01*
X126535219Y-80071677D01*
X126535223Y-80071678D01*
X126732718Y-80110962D01*
X126732720Y-80110962D01*
X126738385Y-80112089D01*
X126744160Y-80112165D01*
X126744164Y-80112165D01*
X126850839Y-80113561D01*
X126951284Y-80114876D01*
X126956982Y-80113897D01*
X127155436Y-80079797D01*
X127155439Y-80079796D01*
X127161126Y-80078819D01*
X127360884Y-80005125D01*
X127521078Y-79909818D01*
X127589847Y-79892179D01*
X127657237Y-79914519D01*
X127701851Y-79969747D01*
X127711500Y-80018104D01*
X127711500Y-80611442D01*
X127691498Y-80679563D01*
X127637842Y-80726056D01*
X127567568Y-80736160D01*
X127509935Y-80712268D01*
X127466297Y-80679563D01*
X127436705Y-80657385D01*
X127300316Y-80606255D01*
X127238134Y-80599500D01*
X125441866Y-80599500D01*
X125438469Y-80599869D01*
X125387534Y-80605402D01*
X125387532Y-80605402D01*
X125379684Y-80606255D01*
X125368293Y-80610525D01*
X125364964Y-80610769D01*
X125364602Y-80610855D01*
X125364588Y-80610796D01*
X125297488Y-80615710D01*
X125230429Y-80576856D01*
X125171253Y-80511134D01*
X125016752Y-80398882D01*
X125010724Y-80396198D01*
X125010722Y-80396197D01*
X124848319Y-80323891D01*
X124848318Y-80323891D01*
X124842288Y-80321206D01*
X124748887Y-80301353D01*
X124661944Y-80282872D01*
X124661939Y-80282872D01*
X124655487Y-80281500D01*
X124464513Y-80281500D01*
X124458061Y-80282872D01*
X124458056Y-80282872D01*
X124371113Y-80301353D01*
X124277712Y-80321206D01*
X124271682Y-80323891D01*
X124271681Y-80323891D01*
X124109278Y-80396197D01*
X124109276Y-80396198D01*
X124103248Y-80398882D01*
X123948747Y-80511134D01*
X123944326Y-80516044D01*
X123944325Y-80516045D01*
X123835203Y-80637238D01*
X123820960Y-80653056D01*
X123806073Y-80678841D01*
X123745537Y-80783693D01*
X123725473Y-80818444D01*
X123666458Y-81000072D01*
X123665768Y-81006633D01*
X123665768Y-81006635D01*
X123650275Y-81154041D01*
X123623262Y-81219698D01*
X123565040Y-81260327D01*
X123494095Y-81263030D01*
X123435870Y-81229965D01*
X123003652Y-80797747D01*
X122996112Y-80789461D01*
X122992000Y-80782982D01*
X122942348Y-80736356D01*
X122939507Y-80733602D01*
X122919770Y-80713865D01*
X122916573Y-80711385D01*
X122907551Y-80703680D01*
X122881100Y-80678841D01*
X122875321Y-80673414D01*
X122868375Y-80669595D01*
X122868372Y-80669593D01*
X122857566Y-80663652D01*
X122841047Y-80652801D01*
X122835048Y-80648148D01*
X122825041Y-80640386D01*
X122817772Y-80637241D01*
X122817768Y-80637238D01*
X122784463Y-80622826D01*
X122773813Y-80617609D01*
X122735060Y-80596305D01*
X122715437Y-80591267D01*
X122696734Y-80584863D01*
X122685420Y-80579967D01*
X122685419Y-80579967D01*
X122678145Y-80576819D01*
X122670322Y-80575580D01*
X122670312Y-80575577D01*
X122634476Y-80569901D01*
X122622856Y-80567495D01*
X122587711Y-80558472D01*
X122587710Y-80558472D01*
X122580030Y-80556500D01*
X122559776Y-80556500D01*
X122540065Y-80554949D01*
X122527886Y-80553020D01*
X122520057Y-80551780D01*
X122512165Y-80552526D01*
X122476039Y-80555941D01*
X122464181Y-80556500D01*
X121618200Y-80556500D01*
X121550079Y-80536498D01*
X121530853Y-80520157D01*
X121530580Y-80520460D01*
X121525668Y-80516037D01*
X121521253Y-80511134D01*
X121366752Y-80398882D01*
X121360724Y-80396198D01*
X121360722Y-80396197D01*
X121198319Y-80323891D01*
X121198318Y-80323891D01*
X121192288Y-80321206D01*
X121098887Y-80301353D01*
X121011944Y-80282872D01*
X121011939Y-80282872D01*
X121005487Y-80281500D01*
X120814513Y-80281500D01*
X120808061Y-80282872D01*
X120808056Y-80282872D01*
X120721113Y-80301353D01*
X120627712Y-80321206D01*
X120621682Y-80323891D01*
X120621681Y-80323891D01*
X120459278Y-80396197D01*
X120459276Y-80396198D01*
X120453248Y-80398882D01*
X120298747Y-80511134D01*
X120294326Y-80516044D01*
X120294325Y-80516045D01*
X120185203Y-80637238D01*
X120170960Y-80653056D01*
X120137252Y-80711441D01*
X120131581Y-80721263D01*
X120080199Y-80770256D01*
X120010485Y-80783693D01*
X119944574Y-80757306D01*
X119933367Y-80747358D01*
X119925724Y-80739715D01*
X119823649Y-80663214D01*
X119808054Y-80654676D01*
X119687606Y-80609522D01*
X119672351Y-80605895D01*
X119621486Y-80600369D01*
X119614672Y-80600000D01*
X118992115Y-80600000D01*
X118976876Y-80604475D01*
X118975671Y-80605865D01*
X118974000Y-80613548D01*
X118974000Y-81685885D01*
X118978475Y-81701124D01*
X118979865Y-81702329D01*
X118987548Y-81704000D01*
X120077999Y-81704000D01*
X120077999Y-81705341D01*
X120126314Y-81705341D01*
X120184450Y-81741927D01*
X120298747Y-81868866D01*
X120453248Y-81981118D01*
X120459276Y-81983802D01*
X120459278Y-81983803D01*
X120621681Y-82056109D01*
X120627712Y-82058794D01*
X120721112Y-82078647D01*
X120808056Y-82097128D01*
X120808061Y-82097128D01*
X120814513Y-82098500D01*
X121005487Y-82098500D01*
X121011939Y-82097128D01*
X121011944Y-82097128D01*
X121098888Y-82078647D01*
X121192288Y-82058794D01*
X121198319Y-82056109D01*
X121360722Y-81983803D01*
X121360724Y-81983802D01*
X121366752Y-81981118D01*
X121521253Y-81868866D01*
X121525668Y-81863963D01*
X121530580Y-81859540D01*
X121531705Y-81860789D01*
X121585014Y-81827949D01*
X121618200Y-81823500D01*
X122185406Y-81823500D01*
X122253527Y-81843502D01*
X122274501Y-81860405D01*
X123072878Y-82658782D01*
X123106904Y-82721094D01*
X123109092Y-82734703D01*
X123126458Y-82899928D01*
X123185473Y-83081556D01*
X123280960Y-83246944D01*
X123285378Y-83251851D01*
X123285379Y-83251852D01*
X123330268Y-83301706D01*
X123408747Y-83388866D01*
X123425648Y-83401145D01*
X123448374Y-83417657D01*
X123491728Y-83473880D01*
X123497803Y-83544616D01*
X123463408Y-83608688D01*
X120979500Y-86092595D01*
X120917188Y-86126621D01*
X120890405Y-86129500D01*
X120834513Y-86129500D01*
X120828061Y-86130872D01*
X120828056Y-86130872D01*
X120741113Y-86149353D01*
X120647712Y-86169206D01*
X120641682Y-86171891D01*
X120641681Y-86171891D01*
X120479278Y-86244197D01*
X120479276Y-86244198D01*
X120473248Y-86246882D01*
X120318747Y-86359134D01*
X120314326Y-86364044D01*
X120314325Y-86364045D01*
X120287498Y-86393840D01*
X120190960Y-86501056D01*
X120187659Y-86506774D01*
X120183776Y-86512118D01*
X120182291Y-86511039D01*
X120137370Y-86553869D01*
X120067656Y-86567304D01*
X120001746Y-86540916D01*
X119964087Y-86492118D01*
X119923419Y-86398590D01*
X119921354Y-86393840D01*
X119877035Y-86325334D01*
X119802822Y-86210617D01*
X119802820Y-86210614D01*
X119800014Y-86206277D01*
X119649670Y-86041051D01*
X119645619Y-86037852D01*
X119645615Y-86037848D01*
X119478414Y-85905800D01*
X119478410Y-85905798D01*
X119474359Y-85902598D01*
X119433053Y-85879796D01*
X119383084Y-85829364D01*
X119368312Y-85759921D01*
X119393428Y-85693516D01*
X119420780Y-85666909D01*
X119464603Y-85635650D01*
X119599860Y-85539173D01*
X119758096Y-85381489D01*
X119817594Y-85298689D01*
X119885435Y-85204277D01*
X119888453Y-85200077D01*
X119895827Y-85185158D01*
X119985136Y-85004453D01*
X119985137Y-85004451D01*
X119987430Y-84999811D01*
X120052370Y-84786069D01*
X120081529Y-84564590D01*
X120083156Y-84498000D01*
X120064852Y-84275361D01*
X120010431Y-84058702D01*
X119921354Y-83853840D01*
X119877035Y-83785334D01*
X119802822Y-83670617D01*
X119802820Y-83670614D01*
X119800014Y-83666277D01*
X119796540Y-83662459D01*
X119796533Y-83662450D01*
X119652435Y-83504088D01*
X119621383Y-83440242D01*
X119629779Y-83369744D01*
X119674956Y-83314976D01*
X119701400Y-83301307D01*
X119808052Y-83261325D01*
X119823649Y-83252786D01*
X119925724Y-83176285D01*
X119938285Y-83163724D01*
X120014786Y-83061649D01*
X120023324Y-83046054D01*
X120068478Y-82925606D01*
X120072105Y-82910351D01*
X120077631Y-82859486D01*
X120078000Y-82852672D01*
X120078000Y-82230115D01*
X120073525Y-82214876D01*
X120072135Y-82213671D01*
X120064452Y-82212000D01*
X118592000Y-82212000D01*
X118523879Y-82191998D01*
X118477386Y-82138342D01*
X118466000Y-82086000D01*
X118466000Y-80618116D01*
X118461525Y-80602877D01*
X118460135Y-80601672D01*
X118452452Y-80600001D01*
X117825331Y-80600001D01*
X117818510Y-80600371D01*
X117767648Y-80605895D01*
X117752396Y-80609521D01*
X117631946Y-80654676D01*
X117616352Y-80663214D01*
X117550065Y-80712893D01*
X117483559Y-80737741D01*
X117414176Y-80722688D01*
X117363946Y-80672514D01*
X117348500Y-80612067D01*
X117348500Y-80003532D01*
X117368502Y-79935411D01*
X117422158Y-79888918D01*
X117492432Y-79878814D01*
X117541736Y-79896970D01*
X117691799Y-79991653D01*
X117889559Y-80070551D01*
X117895219Y-80071677D01*
X117895223Y-80071678D01*
X118092718Y-80110962D01*
X118092720Y-80110962D01*
X118098385Y-80112089D01*
X118104160Y-80112165D01*
X118104164Y-80112165D01*
X118210839Y-80113561D01*
X118311284Y-80114876D01*
X118316982Y-80113897D01*
X118515436Y-80079797D01*
X118515439Y-80079796D01*
X118521126Y-80078819D01*
X118720884Y-80005125D01*
X118903866Y-79896261D01*
X119063946Y-79755875D01*
X119195762Y-79588667D01*
X119212041Y-79557727D01*
X119292207Y-79405356D01*
X119294900Y-79400238D01*
X119303685Y-79371948D01*
X119356324Y-79202421D01*
X119358039Y-79196898D01*
X119378500Y-79024018D01*
X119378500Y-78664500D01*
X119398502Y-78596379D01*
X119452158Y-78549886D01*
X119504500Y-78538500D01*
X119710610Y-78538500D01*
X119845255Y-78523397D01*
X119859622Y-78518394D01*
X120009894Y-78466064D01*
X120009897Y-78466062D01*
X120016552Y-78463745D01*
X120024522Y-78458765D01*
X120164402Y-78371359D01*
X120170376Y-78367626D01*
X120182612Y-78355475D01*
X120294085Y-78244778D01*
X120294088Y-78244774D01*
X120299082Y-78239815D01*
X120396273Y-78086666D01*
X120406672Y-78057463D01*
X120454757Y-77922425D01*
X120454758Y-77922420D01*
X120457119Y-77915790D01*
X120478596Y-77735680D01*
X120459636Y-77555288D01*
X120401182Y-77383579D01*
X120306138Y-77229088D01*
X120301207Y-77224053D01*
X120301205Y-77224050D01*
X120184157Y-77104525D01*
X120184156Y-77104524D01*
X120179229Y-77099493D01*
X120026762Y-77001235D01*
X120020142Y-76998826D01*
X120020139Y-76998824D01*
X119862934Y-76941606D01*
X119862933Y-76941606D01*
X119856315Y-76939197D01*
X119716231Y-76921500D01*
X119369390Y-76921500D01*
X119234745Y-76936603D01*
X119228092Y-76938920D01*
X119228091Y-76938920D01*
X119070106Y-76993936D01*
X119070103Y-76993938D01*
X119063448Y-76996255D01*
X119034193Y-77014536D01*
X118965826Y-77033672D01*
X118900188Y-77014244D01*
X118877599Y-76999991D01*
X118748201Y-76918347D01*
X118550441Y-76839449D01*
X118544781Y-76838323D01*
X118544777Y-76838322D01*
X118347282Y-76799038D01*
X118347280Y-76799038D01*
X118341615Y-76797911D01*
X118335840Y-76797835D01*
X118335836Y-76797835D01*
X118229161Y-76796439D01*
X118128716Y-76795124D01*
X118123019Y-76796103D01*
X118123018Y-76796103D01*
X117924564Y-76830203D01*
X117924561Y-76830204D01*
X117918874Y-76831181D01*
X117719116Y-76904875D01*
X117538921Y-77012081D01*
X117470153Y-77029720D01*
X117402763Y-77007380D01*
X117358149Y-76952152D01*
X117348500Y-76903795D01*
X117348500Y-76328532D01*
X117368502Y-76260411D01*
X117422158Y-76213918D01*
X117492432Y-76203814D01*
X117541736Y-76221970D01*
X117691799Y-76316653D01*
X117889559Y-76395551D01*
X117895219Y-76396677D01*
X117895223Y-76396678D01*
X118092718Y-76435962D01*
X118092720Y-76435962D01*
X118098385Y-76437089D01*
X118104160Y-76437165D01*
X118104164Y-76437165D01*
X118210839Y-76438561D01*
X118311284Y-76439876D01*
X118316982Y-76438897D01*
X118515436Y-76404797D01*
X118515439Y-76404796D01*
X118521126Y-76403819D01*
X118720884Y-76330125D01*
X118903866Y-76221261D01*
X119063946Y-76080875D01*
X119195762Y-75913667D01*
X119212041Y-75882727D01*
X119292207Y-75730356D01*
X119294900Y-75725238D01*
X119303685Y-75696948D01*
X119356324Y-75527421D01*
X119358039Y-75521898D01*
X119378500Y-75349018D01*
X119378500Y-73925987D01*
X119363981Y-73767976D01*
X119306186Y-73563052D01*
X119212015Y-73372092D01*
X119084622Y-73201491D01*
X118928271Y-73056963D01*
X118748201Y-72943347D01*
X118550441Y-72864449D01*
X118544781Y-72863323D01*
X118544777Y-72863322D01*
X118347282Y-72824038D01*
X118347280Y-72824038D01*
X118341615Y-72822911D01*
X118335840Y-72822835D01*
X118335836Y-72822835D01*
X118229161Y-72821439D01*
X118128716Y-72820124D01*
X118123019Y-72821103D01*
X118123018Y-72821103D01*
X117924564Y-72855203D01*
X117924561Y-72855204D01*
X117918874Y-72856181D01*
X117719116Y-72929875D01*
X117538921Y-73037081D01*
X117470153Y-73054720D01*
X117402763Y-73032380D01*
X117358149Y-72977152D01*
X117348500Y-72928795D01*
X117348500Y-72234500D01*
X117368502Y-72166379D01*
X117422158Y-72119886D01*
X117474500Y-72108500D01*
X127585500Y-72108500D01*
X127653621Y-72128502D01*
G37*
%TD.AperFunction*%
%TD*%
M02*
