M48
; DRILL file {KiCad (6.0.7-1)-1} date Sunday, September 18, 2022 at 09:52:16 PM
; FORMAT={-:-/ absolute / inch / decimal}
; #@! TF.CreationDate,2022-09-18T21:52:16-07:00
; #@! TF.GenerationSoftware,Kicad,Pcbnew,(6.0.7-1)-1
; #@! TF.FileFunction,MixedPlating,1,2
FMAT,2
INCH
; #@! TA.AperFunction,Plated,PTH,ViaDrill
T1C0.0157
; #@! TA.AperFunction,Plated,PTH,ComponentDrill
T2C0.0236
; #@! TA.AperFunction,Plated,PTH,ComponentDrill
T3C0.0394
; #@! TA.AperFunction,NonPlated,NPTH,ComponentDrill
T4C0.0236
%
G90
G05
T1
X4.7602Y-3.1965
X4.761Y-3.4267
X4.761Y-3.5669
X4.763Y-3.803
X4.772Y-3.35
X4.815Y-3.448
X4.8803Y-3.546
X4.8827Y-3.2563
X4.9039Y-3.1965
X4.9205Y-3.7767
X4.9465Y-3.154
T3
X4.674Y-3.2267
X4.674Y-3.3267
X4.674Y-3.4267
X4.674Y-3.5267
X4.674Y-3.6267
X4.674Y-3.7267
X4.674Y-3.8267
X4.674Y-3.9267
X4.674Y-4.0267
X4.974Y-3.2267
X4.974Y-3.3267
X4.974Y-3.4267
X4.974Y-3.5267
X4.974Y-3.6267
X4.974Y-3.7267
X4.974Y-3.8267
X4.974Y-3.9267
X4.974Y-4.0267
T4
X4.9425Y-3.0602
T2
G00X4.6543Y-2.9638
M15
G01X4.6543Y-2.9126
M16
G05
G00X4.6543Y-3.1085
M15
G01X4.6543Y-3.0691
M16
G05
G00X4.9945Y-2.9638
M15
G01X4.9945Y-2.9126
M16
G05
G00X4.9945Y-3.1085
M15
G01X4.9945Y-3.0691
M16
G05
T4
G00X4.7112Y-3.0602
M15
G01X4.7014Y-3.0602
M16
G05
T0
M30
